<?xml version="1.0" encoding="UTF-8"?><svg id="_레이어_1" xmlns="http://www.w3.org/2000/svg" width="387" height="387" viewBox="0 0 387 387"><defs><style>.cls-1{fill:#383838;}</style></defs><path class="cls-1" d="M370.87,274.07c-8.91,0-16.13,7.22-16.13,16.13v41.72l-48.3-48.3c35.4-37.78,64.44-81.39,64.44-122.69,1.86-50.95-37.79-93.84-88.73-95.98-29.57,.39-56.92,15.77-72.6,40.85-15.68-25.08-43.03-40.46-72.6-40.85-13.68,.04-27.14,3.47-39.17,9.99L27.34,4.53C20.93-1.66,10.72-1.48,4.53,4.93-1.51,11.18-1.51,21.09,4.53,27.34L72.4,95.23c-15.73,18.26-24.33,41.59-24.2,65.69,0,61.16,63.74,127.45,117.21,172.24,25.5,21.46,62.75,21.46,88.25,0,9.81-8.23,19.97-17.18,30.02-26.68l48.24,48.25h-41.72c-8.91,0-16.13,7.22-16.13,16.13s7.22,16.13,16.13,16.13h64.53c17.82,0,32.27-14.45,32.27-32.27v-64.53c0-8.91-7.22-16.13-16.13-16.13Z"/></svg>